{
    "accessors" : [
        {
            "bufferView" : 0, 
            "componentType" : 5123, 
            "count" : 2688, 
            "max" : [
                1791
            ], 
            "min" : [
                0
            ], 
            "type" : "SCALAR"
        }, 
        {
            "bufferView" : 1, 
            "componentType" : 5126, 
            "count" : 1792, 
            "max" : [
                1.0000003576278687, 
                0.980785608291626, 
                0.9999997615814209
            ], 
            "min" : [
                -0.9999995827674866, 
                -0.9807848930358887, 
                -0.9999998807907104
            ], 
            "type" : "VEC3"
        }, 
        {
            "bufferView" : 2, 
            "componentType" : 5126, 
            "count" : 1792, 
            "max" : [
                0.9904382228851318, 
                0.9565495252609253, 
                0.9904387593269348
            ], 
            "min" : [
                -0.9904384016990662, 
                -0.9565494656562805, 
                -0.9904382824897766
            ], 
            "type" : "VEC3"
        }, 
        {
            "bufferView" : 3, 
            "componentType" : 5126, 
            "count" : 1792, 
            "max" : [
                0.9951848983764648, 
                2.98096779260959e-06, 
                0.9951848983764648, 
                -1.0
            ], 
            "min" : [
                -0.995185136795044, 
                -4.5261076593305916e-06, 
                -0.9951856136322021, 
                -1.0
            ], 
            "type" : "VEC4"
        }, 
        {
            "bufferView" : 4, 
            "componentType" : 5126, 
            "count" : 1792, 
            "max" : [
                1.0, 
                1.0
            ], 
            "min" : [
                0.0, 
                0.0
            ], 
            "type" : "VEC2"
        }
    ], 
    "asset" : {
        "generator" : "Khronos Blender glTF 2.0 exporter", 
        "version" : "2.0"
    }, 
    "bufferViews" : [
        {
            "buffer" : 0, 
            "byteLength" : 5376, 
            "byteOffset" : 0, 
            "target" : 34963
        }, 
        {
            "buffer" : 0, 
            "byteLength" : 21504, 
            "byteOffset" : 5376, 
            "target" : 34962
        }, 
        {
            "buffer" : 0, 
            "byteLength" : 21504, 
            "byteOffset" : 26880, 
            "target" : 34962
        }, 
        {
            "buffer" : 0, 
            "byteLength" : 28672, 
            "byteOffset" : 48384, 
            "target" : 34962
        }, 
        {
            "buffer" : 0, 
            "byteLength" : 14336, 
            "byteOffset" : 77056, 
            "target" : 34962
        }
    ], 
    "buffers" : [
        {
            "byteLength" : 91392, 
            "uri" : "invertedsphere2.bin"
        }
    ], 
    "images" : [
        {
            "uri" : "meow.png"
        }
    ], 
    "materials" : [
        {
            "alphaMode" : "BLEND", 
            "name" : "Material.002", 
            "pbrMetallicRoughness" : {
                "baseColorTexture" : {
                    "index" : 0
                }, 
                "metallicFactor" : 0.0, 
                "roughnessFactor" : 0.0
            }
        }
    ], 
    "meshes" : [
        {
            "name" : "Cube", 
            "primitives" : [
                {
                    "attributes" : {
                        "NORMAL" : 2, 
                        "POSITION" : 1, 
                        "TANGENT" : 3, 
                        "TEXCOORD_0" : 4
                    }, 
                    "indices" : 0, 
                    "material" : 0
                }
            ]
        }
    ], 
    "nodes" : [
        {
            "name" : "Camera", 
            "rotation" : [
                0.483536034822464, 
                0.33687159419059753, 
                -0.20870360732078552, 
                0.7804827094078064
            ], 
            "translation" : [
                7.481131553649902, 
                5.34366512298584, 
                6.5076398849487305
            ]
        }, 
        {
            "mesh" : 0, 
            "name" : "Cube"
        }, 
        {
            "name" : "Lamp", 
            "rotation" : [
                0.16907575726509094, 
                0.7558802962303162, 
                -0.27217137813568115, 
                0.570947527885437
            ], 
            "scale" : [
                1.0, 
                1.0, 
                0.9999999403953552
            ], 
            "translation" : [
                -0.5756889581680298, 
                0.46619534492492676, 
                -1.0054539442062378
            ]
        }
    ], 
    "samplers" : [
        {}
    ], 
    "scene" : 0, 
    "scenes" : [
        {
            "name" : "Scene", 
            "nodes" : [
                1, 
                2, 
                0
            ]
        }
    ], 
    "textures" : [
        {
            "sampler" : 0, 
            "source" : 0
        }
    ]
}
